#N canvas 1201 243 450 300 10;
#X obj 211 25 tgl 15 0 empty empty empty 17 7 0 10 -262144 -1 -1 0
1;
#X obj 213 56 s onOff;
#X obj 211 91 r onOff;
#X obj 93 66 osc~ 880;
#X obj 92 100 *~ 0.25;
#X obj 91 134 *~;
#X obj 90 180 dac~;
#X connect 0 0 1 0;
#X connect 2 0 5 1;
#X connect 3 0 4 0;
#X connect 4 0 5 0;
#X connect 5 0 6 0;
#X connect 5 0 6 1;
